<?xml version="1.0" encoding="UTF-8"?>
<svg width="39px" height="45px" viewBox="0 0 39 45" version="1.1" xmlns="http://www.w3.org/2000/svg" xmlns:xlink="http://www.w3.org/1999/xlink">
    <!-- Generator: Sketch 41 (35326) - http://www.bohemiancoding.com/sketch -->
    <title>android_logo</title>
    <desc>Created with Sketch.</desc>
    <defs></defs>
    <g id="Symbols" stroke="none" stroke-width="1" fill="none" fill-rule="evenodd">
        <g id="android_logo" fill="#50888C">
            <g id="android">
                <g id="Layer_1">
                    <g id="Group">
                        <path d="M30.7674015,14.8255435 L7.68518714,14.8255435 C7.17173263,14.8255435 6.7555283,15.2363043 6.7555283,15.7430435 L6.7555283,34.8461957 C6.7555283,35.3529348 7.17173263,35.7636957 7.68518714,35.7636957 L11.8002024,35.7636957 L11.8002024,42.2015217 C11.8002024,43.6952174 13.0271186,44.9061957 14.540719,44.9061957 L14.540719,44.9061957 C16.0542093,44.9061957 17.2812357,43.6953261 17.2812357,42.2015217 L17.2812357,35.7636957 L21.1143025,35.7636957 L21.1143025,42.2015217 C21.1143025,43.6952174 22.3412187,44.9061957 23.8548191,44.9061957 L23.8548191,44.9061957 C25.3683095,44.9061957 26.5953358,43.6953261 26.5953358,42.2015217 L26.5953358,35.7636957 L30.7675116,35.7636957 C31.2809662,35.7636957 31.6971705,35.3529348 31.6971705,34.8461957 L31.6971705,15.7430435 C31.6970604,15.2363043 31.280856,14.8255435 30.7674015,14.8255435 L30.7674015,14.8255435 Z" id="Shape"></path>
                        <path d="M2.84767908,14.821087 L2.84767908,14.821087 C1.33418875,14.821087 0.107162428,16.0319565 0.107162428,17.5257609 L0.107162428,28.511087 C0.107162428,30.0047826 1.33407862,31.2157609 2.84767908,31.2157609 L2.84767908,31.2157609 C4.36116941,31.2157609 5.58819574,30.0048913 5.58819574,28.511087 L5.58819574,17.5257609 C5.5880856,16.0320652 4.36116941,14.821087 2.84767908,14.821087 L2.84767908,14.821087 Z" id="Shape"></path>
                        <path d="M35.6049096,14.821087 L35.6049096,14.821087 C34.0914192,14.821087 32.8643929,16.0319565 32.8643929,17.5257609 L32.8643929,28.511087 C32.8643929,30.0047826 34.0913091,31.2157609 35.6049096,31.2157609 L35.6049096,31.2157609 C37.1183999,31.2157609 38.3454262,30.0048913 38.3454262,28.511087 L38.3454262,17.5257609 C38.3454262,16.0320652 37.11851,14.821087 35.6049096,14.821087 L35.6049096,14.821087 Z" id="Shape"></path>
                        <path d="M7.87197797,13.4857609 L30.5260933,13.4857609 C31.1170836,13.4857609 31.5578483,12.9484783 31.4364783,12.3776087 C30.6871123,8.85282609 28.4132423,5.8823913 25.3277794,4.16641304 L27.2644126,0.717826087 C27.3954746,0.484347826 27.310009,0.190108696 27.0734366,0.0607608696 C26.8363136,-0.0689130435 26.5386157,0.0157608696 26.4075537,0.24923913 L24.4562724,3.72380435 C22.8580874,2.99184783 21.0769663,2.58304348 19.1990356,2.58304348 C17.3209948,2.58304348 15.5398737,2.99184783 13.9416888,3.72380435 L11.9904074,0.249130435 C11.8592353,0.0155434783 11.5610969,-0.0686956522 11.3246347,0.0606521739 C11.0880623,0.19 11.0025967,0.48423913 11.1336587,0.717717391 L13.0702919,4.16630435 C9.98482898,5.8823913 7.71095899,8.85271739 6.96159294,12.3776087 C6.84011282,12.9484783 7.28087751,13.4857609 7.87197797,13.4857609 L7.87197797,13.4857609 Z M25.9587491,8.34630435 C25.9587491,8.92043478 25.4871463,9.38597826 24.9052973,9.38597826 C24.3235584,9.38597826 23.8518455,8.92054348 23.8518455,8.34630435 C23.8518455,7.77217391 24.3234482,7.30663043 24.9052973,7.30663043 C25.4871463,7.30663043 25.9587491,7.77217391 25.9587491,8.34630435 L25.9587491,8.34630435 Z M13.4925537,7.30663043 C14.0742926,7.30663043 14.5460056,7.77206522 14.5460056,8.34630435 C14.5460056,8.92043478 14.0744028,9.38597826 13.4925537,9.38597826 C12.9108148,9.38597826 12.4391019,8.92054348 12.4391019,8.34630435 C12.4391019,7.77217391 12.9107047,7.30663043 13.4925537,7.30663043 L13.4925537,7.30663043 Z" id="Shape"></path>
                    </g>
                </g>
            </g>
        </g>
    </g>
</svg>