<?xml version="1.0" encoding="UTF-8"?>
<svg width="38px" height="45px" viewBox="0 0 38 45" version="1.1" xmlns="http://www.w3.org/2000/svg" xmlns:xlink="http://www.w3.org/1999/xlink">
    <!-- Generator: Sketch 41 (35326) - http://www.bohemiancoding.com/sketch -->
    <title>apple_logo</title>
    <desc>Created with Sketch.</desc>
    <defs></defs>
    <g id="Symbols" stroke="none" stroke-width="1" fill="none" fill-rule="evenodd">
        <g id="apple_logo" fill="#50888C">
            <g id="apple">
                <g id="Layer_1">
                    <g id="XMLID_228_">
                        <path d="M2.04375604,16.5421475 C-1.79219166,23.1438689 0.646391032,33.1623443 4.88832288,39.2369016 C7.0057184,42.2738852 9.14944562,45 12.0856527,45 C12.1409939,45 12.1964839,44.9989672 12.2533127,44.9967541 C13.6328257,44.9421639 14.6297109,44.5209344 15.59357,44.1138689 C16.6756985,43.6564918 17.7948699,43.183623 19.5503162,43.183623 C21.2203704,43.183623 22.2861346,43.6411475 23.3167899,44.0834754 C24.3325684,44.5193115 25.3788442,44.9701967 26.9248271,44.9414262 C30.2322069,44.8803443 32.2628715,41.9386721 34.0544681,39.3435738 C35.9240184,36.6339836 36.8618433,34.0031803 37.1782699,32.9978361 L37.1910638,32.9578525 C37.2513143,32.7791803 37.1662198,32.5841311 36.9935017,32.5054918 C36.9887412,32.5032787 36.9711867,32.4960492 36.9662774,32.4939836 C36.3838561,32.2577705 31.2749123,30.0099836 31.2212075,23.8834918 C31.1713707,18.9060492 35.0538823,16.2702295 35.8325269,15.7924918 L35.868826,15.7700656 C35.9531767,15.7162131 36.0119395,15.6307869 36.0318742,15.5331148 C36.0518089,15.4355902 36.0309816,15.334082 35.9744503,15.2520492 C33.2945681,11.3625738 29.1871213,10.7763934 27.5334314,10.7058689 C27.2934708,10.6821148 27.0457743,10.6701639 26.7970365,10.6701639 C24.8547393,10.6701639 22.994115,11.3976885 21.4993079,11.9822459 C20.4674625,12.3857705 19.5762016,12.7342623 18.9614978,12.7342623 C18.2707743,12.7342623 17.3744554,12.3814918 16.3365106,11.9730984 C14.9485178,11.4267541 13.3753107,10.8076721 11.7098682,10.8076721 C11.6701475,10.8076721 11.6310219,10.8081148 11.5924913,10.8088525 C7.72009579,10.8653607 4.06103162,13.062541 2.04375604,16.5421475 L2.04375604,16.5421475 Z" id="XMLID_229_"></path>
                        <path d="M27.536853,0.000295081967 C25.1918445,0.0950163934 22.3788162,1.52660656 20.6974557,3.4797541 C19.2685522,5.12144262 17.8726748,7.85862295 18.240426,10.6176393 C18.2634848,10.7902623 18.4051106,10.9234918 18.580209,10.936918 C18.7384967,10.9491639 18.9000572,10.9553607 19.0610227,10.9555082 C21.3539629,10.9555082 23.8275057,9.69742623 25.5167509,7.67168852 C27.2946609,5.53263934 28.1936577,2.7874918 27.9217123,0.32857377 C27.9002899,0.135885246 27.729357,-0.0072295082 27.536853,0.000295081967 L27.536853,0.000295081967 Z" id="XMLID_230_"></path>
                    </g>
                </g>
            </g>
        </g>
    </g>
</svg>