<?xml version="1.0" encoding="UTF-8"?>
<svg width="45px" height="45px" viewBox="0 0 45 45" version="1.1" xmlns="http://www.w3.org/2000/svg" xmlns:xlink="http://www.w3.org/1999/xlink">
    <!-- Generator: Sketch 41 (35326) - http://www.bohemiancoding.com/sketch -->
    <title>instagram</title>
    <desc>Created with Sketch.</desc>
    <defs></defs>
    <g id="Symbols" stroke="none" stroke-width="1" fill="none" fill-rule="evenodd">
        <g id="instagram" fill="#50888C">
            <g id="Shape">
                <path d="M36.0070521,0 L8.62500458,0 C3.867527,0 -1.0658141e-14,3.8699779 -1.0658141e-14,8.62500458 L-1.0658141e-14,36.0097754 C-1.0658141e-14,40.767253 3.8699779,44.6347799 8.62500458,44.6347799 L36.0097754,44.6347799 C40.767253,44.6347799 44.6347799,40.764802 44.6347799,36.0097754 L44.6347799,8.62500458 C44.6345076,3.8699779 40.7645297,0 36.0070521,0 Z M38.724288,4.99058581 L39.7011096,4.98813491 L39.7011096,12.395857 L32.2389229,12.4206384 L32.2141416,5.01291628 C32.2141416,5.01291628 38.724288,4.99058581 38.724288,4.99058581 Z M22.31739,14.8500292 C28.5078296,14.8500292 29.7844784,20.6611233 29.7844784,22.3195686 C29.7844784,26.4324583 26.4327306,29.7842061 22.31739,29.7842061 C18.1995984,29.7842061 14.8503015,26.4324583 14.8503015,22.3195686 C14.8475783,20.6611233 16.1269503,14.8500292 22.31739,14.8500292 Z M39.7433196,35.4692148 C39.7433196,37.8269848 37.8269848,39.7457705 35.464313,39.7457705 L9.08604691,39.7457705 C6.72582606,39.7457705 4.80704031,37.8294357 4.80704031,35.4692148 L4.80704031,17.3491346 L11.0048327,17.3491346 C10.4296871,18.764668 10.1048061,20.6984315 10.1048061,22.3198409 C10.1048061,29.0483902 15.5787647,34.5247997 22.3097649,34.5247997 C29.0407651,34.5247997 34.5120005,29.0483902 34.5120005,22.3198409 C34.5120005,20.6984315 34.1871195,18.764668 33.6144249,17.3491346 L39.7378731,17.3491346 L39.7378731,35.4692148 L39.7433196,35.4692148 Z"></path>
            </g>
        </g>
    </g>
</svg>