<?xml version="1.0" encoding="UTF-8"?>
<svg width="114px" height="114px" viewBox="0 0 114 114" version="1.1" xmlns="http://www.w3.org/2000/svg" xmlns:xlink="http://www.w3.org/1999/xlink">
    <!-- Generator: Sketch 41 (35326) - http://www.bohemiancoding.com/sketch -->
    <title>logo</title>
    <desc>Created with Sketch.</desc>
    <defs></defs>
    <g id="Symbols" stroke="none" stroke-width="1" fill="none" fill-rule="evenodd">
        <g id="logo">
            <g id="logo-copy">
                <rect id="Rectangle-3" fill="#092729" x="0" y="0" width="114" height="114" rx="18"></rect>
                <g id="abs-2-copy" transform="translate(24.000000, 14.000000)" stroke="#FFFFFF" fill="#CD0000">
                    <path d="M0.111666667,13.2228474 C11.9435534,9.03023724 23.1358786,2.58006778 28.5721509,0 C31.1303967,6.45016946 30.810616,25.8006778 30.810616,25.8006778 C30.810616,25.8006778 18.9787293,30.3157965 5.22815822,30.3157965 C3.30947389,22.2530846 1.39078955,15.8029152 0.111666667,13.2228474 Z" id="Path-20"></path>
                    <path d="M36.2596795,13.2228474 C48.0915662,9.03023724 59.2838915,2.58006778 64.7201637,0 C67.2784095,6.45016946 66.9586288,25.8006778 66.9586288,25.8006778 C66.9586288,25.8006778 55.1267421,30.3157965 41.376171,30.3157965 C39.4574867,22.2530846 37.5388024,15.8029152 36.2596795,13.2228474 Z" id="Path-21" transform="translate(51.615550, 15.157898) scale(-1, 1) translate(-51.615550, -15.157898) "></path>
                    <path d="M6.18750038,36.7659659 C6.18750038,36.7659659 18.6589485,36.120949 30.810616,33.5408812 C30.810616,33.5408812 31.7699581,53.213898 31.1303967,54.1814235 C31.1303967,54.1814235 28.4839803,55.3778675 23.873631,56.3941452 C19.8536011,57.2802965 14.3403727,58.0294655 7.78640399,57.7290167 C7.78640399,57.7290167 7.46662327,44.8286777 6.18750038,36.7659659 Z" id="Path-22" fill-opacity="0.75"></path>
                    <path d="M35.620118,36.7659659 C35.620118,36.7659659 48.0915662,36.120949 60.2432336,33.5408812 C60.2432336,33.5408812 61.2025758,53.213898 60.5630143,54.1814235 C60.5630143,54.1814235 57.9165979,55.3778675 53.3062486,56.3941452 C49.2862187,57.2802965 43.7729903,58.0294655 37.2190216,57.7290167 C37.2190216,57.7290167 36.8992409,44.8286777 35.620118,36.7659659 Z" id="Path-23" fill-opacity="0.75" transform="translate(48.201491, 45.668681) scale(-1, 1) translate(-48.201491, -45.668681) "></path>
                    <path d="M7.46662327,64.5016946 C7.46662327,64.5016946 23.1358786,64.1791861 31.1303967,60.9541014 C31.1303967,60.9541014 32.7293003,71.9193895 31.7699581,77.724542 C31.1303967,79.6595928 30.810616,87.7223047 7.46662327,85.1422369 C7.46662327,85.1422369 7.78640399,66.114237 7.46662327,64.5016946 Z" id="Path-24" fill-opacity="0.5"></path>
                    <path d="M34.7734986,64.5016946 C34.7734986,64.5016946 50.4427539,64.1791861 58.437272,60.9541014 C58.437272,60.9541014 60.0361756,71.9193895 59.0768334,77.724542 C58.437272,79.6595928 58.1174913,87.7223047 34.7734986,85.1422369 C34.7734986,85.1422369 35.0932793,66.114237 34.7734986,64.5016946 Z" id="Path-25" fill-opacity="0.5" transform="translate(47.078434, 73.300323) scale(-1, 1) translate(-47.078434, -73.300323) "></path>
                </g>
            </g>
        </g>
    </g>
</svg>